<?xml version="1.0" encoding="utf-8"?>
<!DOCTYPE svg PUBLIC "-//W3C//DTD SVG 1.1//EN" "http://www.w3.org/Graphics/SVG/1.1/DTD/svg11.dtd">
<svg xmlns="http://www.w3.org/2000/svg" x="0" y="0" width="94px" height="97px" viewBox="0 0 94 97">
<path fill="#30A5E7" d="M93.002,46.999C93.002,21.635,72.365,1,47,1C21.635,1,1,21.635,1,46.999c0,9.873,3.324,19.828,8.893,26.63
	c5.238,6.384,15.973,10.331,26.361,5.523c6.91-3.198,14.165-10.547,16.223-12.724c3.629-3.837,10.998-12.803,13.225-16.605
	c0.363-0.62,0.684-1.242,0.98-1.863l9.373-5.375l-7.586-4.555c-0.258-1.825-0.863-3.551-1.836-5.117
	c-3.064-4.928-9.078-7.448-16.494-6.918c-5.116,0.365-8.885,3.117-11.784,6.76c-2.656-2.184-6.109-4.436-8.851-4.453
	c-1.993-0.045-4.523,0.9-5.652,3.509c-1.112,2.571,0.762,5.142,2.178,6.602c-1.339,0.547-3.02,1.53-3.458,3.116
	c-0.436,1.577-0.152,3.748,1.461,5.042c1.694,1.359,4.341,1.965,6.71,2.227c-1.022,4.297-1.323,8.854-0.398,12.354
	c-0.881,0.717-1.457,1.796-1.457,3.019c0,2.157,1.754,3.912,3.91,3.912c2.156,0,3.91-1.755,3.91-3.912
	c0-2.155-1.754-3.908-3.91-3.908c-0.203,0-0.397,0.03-0.592,0.06c-0.703-3.009-0.5-7.162,0.544-11.372
	c0.534,0.023,1.042,0.037,1.469,0.037c0.963,0,1.605-0.041,1.697-0.047c0.551-0.038,0.967-0.515,0.93-1.065
	c-0.037-0.552-0.521-0.957-1.066-0.931c-0.576,0.04-1.457,0.062-2.475,0.03l-2.048-0.131c-2.225-0.223-4.609-0.739-5.973-1.832
	c-1.035-0.83-0.965-2.293-0.784-2.949c0.312-1.132,2.63-2.008,3.703-2.255l2.084-0.479l-1.702-1.292
	c-0.04-0.029-3.921-3.062-2.896-5.43c0.932-2.154,3.164-2.311,3.803-2.303c2.181,0.014,5.263,2.068,7.673,4.055l1.539,1.338
	c1.049,0.958,1.822,1.771,2.084,2.133c0.326,0.447,0.949,0.546,1.398,0.221c0.445-0.324,0.545-0.949,0.221-1.396
	c-0.277-0.383-1.219-1.389-2.521-2.573c3.033-3.856,6.406-5.802,10.397-6.087c6.654-0.473,11.994,1.703,14.652,5.979
	c2.529,4.068,2.18,9.478-0.959,14.841c-2.164,3.694-9.385,12.471-12.951,16.242c-1.422,1.502-8.854,9.155-15.61,12.282
	c-9.464,4.382-19.224,0.812-23.972-4.976C6.156,65.905,3,56.425,3,46.999C3,22.738,22.738,3.001,47,3.001
	c24.262,0,44,19.737,44,43.998c0,24.008-19.328,43.573-43.24,43.981c-0.451-1.66-1.958-2.891-3.76-2.891
	c-2.156,0-3.91,1.753-3.91,3.908c0,2.157,1.754,3.912,3.91,3.912c1.814,0,3.331-1.248,3.77-2.928
	C72.779,92.568,93.002,72.107,93.002,46.999z M68.6,40.442l3.504,2.104l-4.266,2.446C68.307,43.447,68.561,41.922,68.6,40.442z
	 M32.797,62.261c1.052,0,1.91,0.856,1.91,1.908c0,1.055-0.857,1.912-1.91,1.912c-1.053,0-1.91-0.857-1.91-1.912
	C30.887,63.117,31.744,62.261,32.797,62.261z M44,93.91c-1.053,0-1.91-0.857-1.91-1.912c0-1.052,0.857-1.908,1.91-1.908
	s1.91,0.856,1.91,1.908C45.91,93.053,45.052,93.91,44,93.91z"/>
<path fill="#30A5E7" d="M56.797,42.081c-2.156,0-3.91-1.755-3.91-3.912c0-2.155,1.754-3.908,3.91-3.908s3.91,1.753,3.91,3.908
	C60.707,40.326,58.953,42.081,56.797,42.081z M56.797,36.261c-1.053,0-1.91,0.856-1.91,1.908c0,1.055,0.857,1.912,1.91,1.912
	c1.055,0,1.91-0.857,1.91-1.912C58.707,37.117,57.852,36.261,56.797,36.261z"/>
</svg>
