<?xml version="1.0" encoding="utf-8"?>
<!DOCTYPE svg PUBLIC "-//W3C//DTD SVG 1.1//EN" "http://www.w3.org/Graphics/SVG/1.1/DTD/svg11.dtd">
<svg xmlns="http://www.w3.org/2000/svg" x="0" y="0" width="94px" height="97px" viewBox="0 0 94 97">
<path fill="none" stroke="#30A5E7" stroke-width="2" d="M59.707,38.168c0,1.609-1.303,2.912-2.91,2.912
	s-2.909-1.303-2.909-2.912c0-1.605,1.302-2.908,2.909-2.908S59.707,36.562,59.707,38.168z"/>
<path fill="none" stroke="#30A5E7" stroke-width="2" d="M46.91,91.997c0,1.609-1.302,2.912-2.91,2.912
	s-2.91-1.303-2.91-2.912c0-1.605,1.302-2.908,2.91-2.908S46.91,90.392,46.91,91.997z"/>
<path fill="none" stroke="#30A5E7" stroke-width="2" d="M67.66,38.711 74.08,42.564 66.034,47.178"/>
<path fill="none" stroke="#30A5E7" stroke-width="2" d="M47,92
	c24.855,0,45-20.145,45-45.002C92,22.146,71.855,2,47,2C22.146,2,2,22.146,2,46.998c0,7.953,2.312,18.233,8.667,25.995
	c4.848,5.908,15.083,9.917,25.167,5.25c6.155-2.849,12.924-9.339,15.916-12.503c3.741-3.955,10.948-12.77,13.088-16.424
	c7.185-12.273-0.257-23.352-14.627-22.324c-7.94,0.566-12.831,7.312-16.68,16.422c-2.546,6.025-3.522,13.453-2.061,18.061"/>
<path fill="#FFF" stroke="#30A5E7" stroke-width="2" stroke-linecap="round" d="M35.848,47.939
	c0,0-7.844,0.533-11.19-2.15c-1.387-1.112-1.408-2.963-1.123-3.996c0.575-2.083,4.444-2.963,4.444-2.963s-4.574-3.471-3.21-6.623
	c0.917-2.121,2.964-2.918,4.728-2.906c4.31,0.028,11.14,6.617,12.1,7.938"/>
<path fill="none" stroke="#30A5E7" stroke-width="2" d="M35.707,64.168c0,1.609-1.302,2.912-2.91,2.912
	s-2.91-1.303-2.91-2.912c0-1.605,1.302-2.908,2.91-2.908S35.707,62.562,35.707,64.168z"/>
</svg>
