<?xml version="1.0" encoding="utf-8"?>
<!DOCTYPE svg PUBLIC "-//W3C//DTD SVG 1.1//EN" "http://www.w3.org/Graphics/SVG/1.1/DTD/svg11.dtd">
<svg xmlns="http://www.w3.org/2000/svg" x="0" y="0" width="259px" height="73px" viewBox="0 0 259 73">
<path fill="#30A5E7" d="M242,39.5c-1.93,0-3.5-1.57-3.5-3.5s1.57-3.499,3.5-3.499s3.5,1.569,3.5,3.499S243.93,39.5,242,39.5z
	 M242,34.501c-0.827,0-1.5,0.673-1.5,1.499c0,0.827,0.673,1.5,1.5,1.5s1.5-0.673,1.5-1.5C243.5,35.174,242.827,34.501,242,34.501z"/>
<path fill="#30A5E7" d="M84.001,56C81.795,56,80,57.795,80,59.999c0,1.075,0.431,2.048,1.123,2.768
	c-3.704,4.962-10.162,8.251-17.8,6.71c-0.443-0.089-0.885-0.197-1.324-0.324c6.312-2.224,19.319-8.382,20.165-21.504
	c0.423-6.541-2.622-10.313-5.25-12.327c-2.951-2.261-6.565-3.261-8.964-3.442c-4.881-0.371-10.195,1.462-14.185,4.904
	c-2.748,2.37-6.122,6.59-6.597,13.229c-0.605,8.475,3.408,14.938,8.852,18.544c-3.165,0.403-7.971,0.459-12.029-1.847
	c-3.275-1.861-5.563-4.977-6.81-9.268c1.285-4.414,1.184-9.498-0.418-14.855c-2.813-9.414-10.416-14.801-19.37-13.725
	c-5.025,0.605-8.413,3.049-10.639,5.562C6.224,34.161,5.633,34,5.001,34C2.795,34,1,35.795,1,37.999C1,40.205,2.795,42,5.001,42
	s4-1.795,4-4.001c0-0.849-0.271-1.634-0.724-2.282c1.97-2.205,4.953-4.34,9.354-4.87c7.938-0.957,14.695,3.876,17.216,12.312
	c1.1,3.678,1.463,7.164,1.121,10.345c-1.994-4.927-5.666-8.361-10.567-9.81c-6.122-1.81-13.22-0.207-17.664,3.984
	c-2.901,2.736-4.479,6.057-4.563,9.598c-0.088,3.707,1.516,7.638,4.29,10.515c5.058,5.243,14.713,5.407,21.982,0.372
	c2.96-2.051,5.189-4.709,6.638-7.805c1.499,3.618,3.82,6.334,6.931,8.098c5.943,3.369,13.011,2.284,15.807,1.65
	c1.334,0.604,2.717,1.052,4.107,1.332c1.431,0.288,2.822,0.424,4.172,0.424c6.725-0.002,12.324-3.377,15.746-8.051
	C83.215,63.922,83.597,64,84.001,64c2.206,0,4-1.795,4-4.001C88.001,57.795,86.207,56,84.001,56z M5.001,40
	C3.897,40,3,39.103,3,37.999C3,36.896,3.897,36,5.001,36c1.103,0,2,0.896,2,1.999C7.001,39.103,6.104,40,5.001,40z M28.308,66.518
	c-6.486,4.492-15.009,4.442-19.404-0.116c-2.411-2.5-3.806-5.894-3.73-9.078c0.072-3.039,1.396-5.795,3.938-8.19
	c2.827-2.668,7.026-4.16,11.177-4.16c1.547,0,3.088,0.207,4.548,0.639c5.123,1.514,8.726,5.54,10.145,11.338
	c0.045,0.183,0.092,0.364,0.14,0.545C33.922,61.135,31.631,64.217,28.308,66.518z M59.033,67.993
	c-5.827-2.912-10.484-9.222-9.87-17.839c0.426-5.953,3.448-9.734,5.909-11.857c3.291-2.84,7.558-4.466,11.612-4.466
	c0.373,0,0.745,0.014,1.115,0.042c0.132,0.01,13.176,1.144,12.368,13.646c-0.864,13.42-16.065,18.974-20.712,20.358
	C59.445,67.881,59.297,67.926,59.033,67.993z M84.001,62C82.897,62,82,61.103,82,59.999C82,58.896,82.897,58,84.001,58
	c1.103,0,2,0.896,2,1.999C86.001,61.103,85.104,62,84.001,62z"/>
<path fill="#30A5E7" d="M133,57c-2.205,0-4,1.795-4,3.999c0,1.09,0.44,2.077,1.149,2.799c-2.288,2.591-5.028,4.384-8.139,5.266
	c-6.013,1.702-11.979-0.29-15.262-2.517c-1.901-1.289-3.999-3.498-5.533-6.332c5.993,1.713,12.836,0.945,19.831-2.309
	c6.646-3.09,10.213-8.236,9.783-14.119c-0.381-5.217-4.001-9.998-8.607-11.37c-8.176-2.433-19.258,1.251-23.644,11.632
	c-1.823,4.313-1.933,8.66-0.928,12.553c-0.393-0.215-0.779-0.443-1.16-0.687C89.188,51.257,85,41.812,85,30V8.858
	c1.721-0.447,3-2.001,3-3.859C88,2.795,86.206,1,84,1s-4,1.795-4,3.999c0,1.858,1.279,3.412,3,3.859V30
	c0,12.508,4.525,22.568,12.416,27.602c1.003,0.639,2.043,1.191,3.117,1.654c1.545,3.775,4.13,6.938,7.093,8.947
	c2.788,1.889,6.983,3.514,11.643,3.514c1.715-0.001,3.493-0.221,5.287-0.729c3.612-1.023,6.767-3.122,9.353-6.158
	c0.35,0.1,0.711,0.17,1.092,0.17c2.207,0,4-1.795,4-4.001C137,58.795,135.207,57,133,57z M82,4.999C82,3.896,82.897,3,84,3
	s2,0.896,2,1.999C86,6.103,85.103,7,84,7S82,6.103,82,4.999z M100.421,44.827c3.951-9.349,13.896-12.677,21.231-10.493
	c3.839,1.143,6.86,5.18,7.183,9.6c0.215,2.941-0.62,8.436-8.632,12.16c-7.211,3.354-14.207,3.896-20.112,1.635
	C98.723,54.02,98.422,49.559,100.421,44.827z M133,63c-1.104,0-2-0.897-2-2.001c0-1.103,0.896-1.999,2-1.999s2,0.896,2,1.999
	C135,62.103,134.104,63,133,63z"/>
<path fill="#30A5E7" d="M251.797,35.205c-0.225-1.527-0.738-2.972-1.554-4.283c-2.606-4.191-7.702-6.336-14.002-5.889
	c-4.295,0.308-7.461,2.594-9.903,5.623c-2.271-1.863-5.213-3.764-7.608-3.779c-1.771,0.01-3.97,0.793-4.964,3.086
	c-0.945,2.185,0.538,4.354,1.752,5.65c-1.128,0.494-2.462,1.338-2.847,2.654c-0.393,1.34-0.011,3.432,1.292,4.477
	c1.464,1.174,3.738,1.7,5.776,1.929c-0.813,3.633-0.995,7.373-0.217,10.212c-0.921,0.732-1.522,1.85-1.522,3.114
	c0,2.206,1.794,4.001,4,4.001s4-1.795,4-4.001c0-2.204-1.794-3.999-4-3.999c-0.215,0-0.421,0.031-0.626,0.064
	c-0.579-2.416-0.44-5.793,0.368-9.245c0.555,0.03,2.008,0.03,2.476-0.021c0.552-0.037,0.968-0.515,0.931-1.066
	c-0.038-0.55-0.517-0.961-1.065-0.93c-1.763,0.117-6.773,0.061-8.869-1.618c-0.64-0.513-0.799-1.757-0.623-2.354
	c0.239-0.818,1.97-1.58,3.064-1.838l2.069-0.486l-1.692-1.284c-0.853-0.646-3.128-2.854-2.431-4.465
	c0.752-1.737,2.534-1.886,3.096-1.88c2.896-0.168,8.806,5.338,9.556,6.369c0.323,0.446,0.949,0.545,1.396,0.22
	s0.546-0.95,0.221-1.397c-0.237-0.325-0.976-1.128-2.007-2.082c2.494-3.124,5.259-4.725,8.521-4.957
	c5.532-0.395,9.96,1.409,12.16,4.948c2.093,3.364,1.798,7.849-0.809,12.302c-1.687,2.883-7.546,10.113-10.856,13.611
	c-0.293,0.311-0.646,0.548-1.057,1.021C232.746,62.448,226.344,70,215.928,70h-0.233c-3.702,0-8.799-0.14-14.322-5.188
	c-4.421-4.043-4.392-8.997-4.374-12.006L197,44.849c0-7.229-5.687-12.869-12.945-12.869c-5.352,0-9.957,3.215-11.97,7.781
	c-1.908-4.697-6.615-8.016-12.119-8.016c-5.319,0-9.785,3.173-11.805,7.703c0.526-2.07,0.839-4.327,0.839-6.749
	c0-0.553-0.447-0.999-1-0.999s-1,0.447-1,1c0,8.123-3.791,14.403-7.312,16.801c-0.457,0.311-0.575,0.933-0.264,1.389
	c0.193,0.285,0.507,0.438,0.827,0.438c0.193,0,0.39-0.057,0.562-0.174c2.426-1.65,4.857-4.73,6.435-8.823
	c-0.16,0.829-0.247,1.685-0.247,2.56v19.252c-1.721,0.447-3,1.999-3,3.856c0,2.206,1.794,4.001,4,4.001s4-1.795,4-4.001
	c0-1.857-1.279-3.409-3-3.856V44.891c0-6.106,4.816-11.139,10.966-11.139c6.188,0,11.034,4.66,11.034,10.66v19.73
	c-1.721,0.447-3,1.999-3,3.856c0,2.206,1.794,4.001,4,4.001s4-1.795,4-4.001c0-1.857-1.279-3.409-3-3.856v-19.23
	C173,38.895,177.959,34,184.055,34C190.192,34,195,38.784,195,44.891l-0.002,7.986c-0.019,3.123-0.053,8.769,5.024,13.411
	C205.838,71.604,211.35,72,215.156,72c0.186,0,0.775,0,0.775,0c11.325,0,18.13-8.017,21.4-11.776c0.39-0.449,0.722-0.749,1-1.042
	c3.056-3.23,9.258-10.736,11.13-13.935c0.301-0.514,0.565-1.001,0.812-1.517l8.063-4.611L251.797,35.205z M222,56
	c1.103,0,2,0.896,2,1.999c0,1.104-0.897,2.001-2,2.001s-2-0.897-2-2.001C220,56.896,220.897,56,222,56z M150,67.999
	c0,1.104-0.897,2.001-2,2.001s-2-0.897-2-2.001c0-1.103,0.897-1.999,2-1.999S150,66.896,150,67.999z M174,67.999
	c0,1.104-0.897,2.001-2,2.001s-2-0.897-2-2.001c0-1.103,0.897-1.999,2-1.999S174,66.896,174,67.999z M251.913,37.607l2.473,1.484
	l-3.002,1.723C251.684,39.729,251.863,38.654,251.913,37.607z"/>
</svg>
