<?xml version="1.0" encoding="utf-8"?>
<!DOCTYPE svg PUBLIC "-//W3C//DTD SVG 1.1//EN" "http://www.w3.org/Graphics/SVG/1.1/DTD/svg11.dtd">
<svg xmlns="http://www.w3.org/2000/svg" x="0p" y="0p" width="194px" height="54px" viewBox="0 0 194 54">
<path fill="none" stroke="#30A5E7" stroke-width="1.5" d="M3.494,30.132c0,0,2.281-7.386,10.093-8.326
	c6.816-0.82,11.861,3.692,13.665,9.724c2.079,6.958,0.88,14.083-5.176,18.277c-4.968,3.44-11.808,3.602-15.458-0.183
	c-3.122-3.237-4.86-9.209,0.18-13.962c5.521-5.207,17.798-5.084,20.562,6.205c3.31,13.519,17.777,9.056,17.777,9.056
	c5.281-1.574,15.375-6.226,15.997-15.873c0.544-8.424-6.915-10.759-9.928-10.987c-6.163-0.467-14.1,4.141-14.722,12.854
	c-0.573,8.014,4.839,13.942,11.174,15.218c8.506,1.713,14.864-4.145,16.339-10.052"/>
<path fill="none" stroke="#30A5E7" stroke-width="1.5" d="M63.251,3.24c0,0,0,11.329,0,18.675
	c0,18.239,12.699,26.984,27.358,20.168c10.867-5.053,7.096-15.826,0.98-17.647c-5.649-1.681-13.616,0.824-16.761,8.264
	c-3.078,7.286,0.794,14.286,4.996,17.134c5.392,3.654,16.246,4.715,21.521-7.003"/>
<path fill="none" stroke="#30A5E7" stroke-width="1.5" d="M128.984,50.3V33.054
	c0-4.971,4.034-8.898,9.005-8.898s8.923,3.912,8.923,8.883v2.691v2.883c0,2.254-0.248,6.548,3.509,9.981
	c4.429,4.05,8.519,3.954,11.378,3.946c9.161-0.021,14.313-7.293,16.191-9.278c2.347-2.481,6.87-8.011,8.211-10.305
	c4.509-7.701-0.161-14.65-9.177-14.007c-4.981,0.356-8.051,4.588-10.465,10.305c-1.988,4.702-2.451,10.768-0.34,13.094"/>
<circle fill="none" stroke="#30A5E7" stroke-width="1.5" cx="181.272" cy="26.396" r="1.867"/>
<path fill="none" stroke="#30A5E7" stroke-width="1.5" d="M187.973,26.304 192,28.721 186.953,31.616"/>
<path fill="#FFF" stroke="#30A5E7" stroke-width="1.5" stroke-linecap="round" d="M167.939,32.224
	c0,0-5.007,0.34-7.143-1.371c-0.749-0.602-0.921-1.851-0.715-2.552c0.387-1.322,2.836-1.891,2.836-1.891s-2.92-2.215-2.05-4.227
	c0.586-1.354,1.892-1.862,3.018-1.854c2.751,0.018,7.11,4.224,7.722,5.064"/>
<path fill="none" stroke="#30A5E7" stroke-width="1.5" stroke-linecap="round" d="M105.269,37.1
	c2.925-1.992,5.789-6.938,5.789-13.167"/>
<path fill="none" stroke="#30A5E7" stroke-width="1.5" d="M111.058,50.3V33.038
	c0-4.971,3.968-8.883,8.938-8.883c4.971,0,8.989,3.927,8.989,8.896"/>
<circle fill="#FFF" stroke="#30A5E7" stroke-width="1.5" cx="4.241" cy="27.89" r="2.241"/>
<circle fill="#FFF" stroke="#30A5E7" stroke-width="1.5" cx="63.252" cy="44.323" r="2.241"/>
<circle fill="#FFF" stroke="#30A5E7" stroke-width="1.5" cx="63.251" cy="3.24" r="2.241"/>
<circle fill="#FFF" stroke="#30A5E7" stroke-width="1.5" cx="111.058" cy="50.299" r="2.241"/>
<circle fill="#FFF" stroke="#30A5E7" stroke-width="1.5" cx="99.853" cy="45.07" r="2.241"/>
<circle fill="#FFF" stroke="#30A5E7" stroke-width="1.5" cx="128.985" cy="50.299" r="2.241"/>
<circle fill="#FFF" stroke="#30A5E7" stroke-width="1.5" cx="166.333" cy="42.829" r="2.241"/>
</svg>
